<svg width="35px" height="35px" viewBox="0 0 35 35" version="1.1" xmlns="http://www.w3.org/2000/svg" xmlns:xlink="http://www.w3.org/1999/xlink">
    <!-- Generator: Sketch 44.1 (41455) - http://www.bohemiancoding.com/sketch -->
    <desc>Created with Sketch.</desc>
    <defs></defs>
    <g id="Before-MVP-+-UI" stroke="none" stroke-width="1" fill="none" fill-rule="evenodd">
        <g id="Landing-page" transform="translate(-24.000000, -862.000000)">
            <g id="Group-12" transform="translate(24.000000, 862.000000)">
                <ellipse id="Oval-8" fill="#FCD900" cx="28" cy="4.4" rx="4.375" ry="4.4"></ellipse>
                <ellipse id="Oval-7" fill="#DD4F46" cx="5.25" cy="7.04" rx="4.375" ry="4.4"></ellipse>
                <ellipse id="Oval-3" fill="#A1F7DE" cx="18.375" cy="16.72" rx="14.875" ry="14.96"></ellipse>
                <g id="icon_clock4">
                    <rect id="Shape" x="0" y="8.8" width="35" height="35.2"></rect>
                    <path d="M27.3511875,12.6024691 C27.1096875,12.1865877 26.5741875,12.044484 26.1559375,12.2843654 L17.5455,17.2223605 L10.8346875,12.5546667 C10.43875,12.2791506 9.8931875,12.3747556 9.61625,12.7680395 C9.3393125,13.1613235 9.435125,13.7032296 9.8310625,13.9783111 L16.998625,18.9632395 C17.000375,18.9645432 17.002125,18.9654123 17.003875,18.966716 C17.01875,18.9767111 17.033625,18.9862716 17.0485,18.9953975 C17.0524375,18.9980049 17.0568125,19.0006123 17.06075,19.0027852 C17.0760625,19.0114765 17.091375,19.0197333 17.107125,19.0275556 C17.1110625,19.0292938 17.1145625,19.0314667 17.1185,19.0332049 C17.136,19.0418963 17.154375,19.0497185 17.17275,19.0571062 C17.1836875,19.0614519 17.194625,19.0649284 17.205125,19.0688395 C17.213,19.0718815 17.220875,19.0744889 17.2291875,19.0770963 C17.241,19.0810074 17.2528125,19.084484 17.264625,19.0875259 C17.2720625,19.0896988 17.2795,19.0918716 17.2869375,19.0936099 C17.29875,19.0966519 17.3105625,19.0992593 17.3228125,19.1018667 C17.331125,19.1036049 17.339,19.1049086 17.3473125,19.1066469 C17.3586875,19.1088198 17.3700625,19.110558 17.3814375,19.1118617 C17.3915,19.1131654 17.402,19.1144691 17.4120625,19.1153383 C17.42125,19.1162074 17.430875,19.1175111 17.4400625,19.1179457 C17.4601875,19.1192494 17.48075,19.1201185 17.5013125,19.1201185 C17.5345625,19.1201185 17.5678125,19.1179457 17.6010625,19.1140346 L17.6036875,19.1140346 C17.6360625,19.1101235 17.668,19.1044741 17.700375,19.0970864 C17.7025625,19.0966519 17.7051875,19.0957827 17.707375,19.0953481 C17.7375625,19.0879605 17.7673125,19.0788346 17.7970625,19.0684049 C17.8014375,19.0671012 17.8058125,19.065363 17.8101875,19.0636247 C17.8381875,19.0531951 17.8653125,19.0414617 17.8924375,19.0279901 C17.898125,19.0253827 17.903375,19.0223407 17.908625,19.0192988 C17.91825,19.014084 17.9283125,19.0093037 17.9379375,19.0036543 L27.031375,13.7888395 C27.449625,13.548958 27.593125,13.0174815 27.351625,12.6020346 L27.3511875,12.6024691 Z" id="Shape" fill="#000000"></path>
                    <path d="M32.19475,10.5121975 C33.382125,9.40187654 34.125,7.8278716 34.125,6.08395062 C34.125,2.72908642 31.3775,0 28,0 C25.9074375,0 24.05725,1.04861235 22.952125,2.64391111 C21.2218125,2.04898765 19.38475,1.7382716 17.5,1.7382716 C15.61525,1.7382716 13.7790625,2.04898765 12.04875,2.64347654 C10.943625,1.04817778 9.0925625,0 7,0 C3.6225,0 0.875,2.72908642 0.875,6.08395062 C0.875,7.8278716 1.6174375,9.40274568 2.8048125,10.5130667 C1.5439375,12.8679901 0.875,15.5088593 0.875,18.2518519 C0.875,22.579279 2.540125,26.6516148 5.5685,29.7496494 C5.5470625,29.7670321 5.5265,29.7857185 5.506375,29.8052741 L2.006375,33.2818173 C1.6646875,33.6212148 1.6646875,34.1713778 2.006375,34.5107753 C2.177,34.6806914 2.401,34.7654321 2.625,34.7654321 C2.849,34.7654321 3.073,34.6806914 3.243625,34.5107753 L6.743625,31.0342321 C6.7790625,30.9990321 6.8096875,30.9616593 6.8376875,30.9225481 C9.8231875,33.4100148 13.556375,34.7658667 17.5,34.7658667 C21.443625,34.7658667 25.176375,33.4104494 28.1623125,30.9225481 C28.1903125,30.9616593 28.2209375,30.9994667 28.256375,31.0346667 L31.756375,34.5112099 C31.927,34.6811259 32.151,34.7658667 32.375,34.7658667 C32.599,34.7658667 32.823,34.6811259 32.993625,34.5112099 C33.3353125,34.1718123 33.3353125,33.6216494 32.993625,33.2822519 L29.493625,29.8057086 C29.4739375,29.7861531 29.4529375,29.7674667 29.4315,29.750084 C32.4594375,26.6520494 34.1245625,22.5797136 34.1245625,18.2522864 C34.1245625,15.5088593 33.4551875,12.8679901 32.193875,10.5126321 L32.19475,10.5121975 Z M28,1.7382716 C30.412375,1.7382716 32.375,3.68774321 32.375,6.08395062 C32.375,7.19470617 31.9528125,8.20898765 31.26025,8.97817284 C30.6753125,8.12555062 30.006375,7.32073086 29.255625,6.57501235 C27.8875625,5.21611852 26.322625,4.12318025 24.6246875,3.3222716 C25.4275,2.35535802 26.6424375,1.7382716 27.9995625,1.7382716 L28,1.7382716 Z M2.625,6.08395062 C2.625,3.68774321 4.587625,1.7382716 7,1.7382716 C8.357125,1.7382716 9.5711875,2.35622716 10.374,3.32270617 C8.6769375,4.12361481 7.1124375,5.21611852 5.744375,6.57501235 C4.993625,7.32073086 4.3246875,8.12555062 3.73975,8.97817284 C3.0471875,8.20898765 2.625,7.19470617 2.625,6.08395062 L2.625,6.08395062 Z M2.625,18.2518519 C2.625,10.1045728 9.29775,3.47654321 17.5,3.47654321 C25.70225,3.47654321 32.375,10.1045728 32.375,18.2518519 C32.375,26.3991309 25.70225,33.0271605 17.5,33.0271605 C9.29775,33.0271605 2.625,26.3991309 2.625,18.2518519 L2.625,18.2518519 Z" id="Shape" fill="#000000"></path>
                </g>
            </g>
        </g>
    </g>
</svg>
