<svg width="41px" height="40px" viewBox="0 0 41 40" version="1.1" xmlns="http://www.w3.org/2000/svg" xmlns:xlink="http://www.w3.org/1999/xlink">
    <!-- Generator: Sketch 44.1 (41455) - http://www.bohemiancoding.com/sketch -->
    <desc>Created with Sketch.</desc>
    <defs></defs>
    <g id="Before-MVP-+-UI" stroke="none" stroke-width="1" fill="none" fill-rule="evenodd">
        <g id="Landing-page" transform="translate(-24.000000, -702.000000)">
            <g id="Group-11" transform="translate(24.000000, 702.000000)">
                <rect id="Rectangle-15" fill="#A1F7DE" x="3.55271368e-15" y="7.89159892" width="14.4054054" height="31.5663957" rx="2"></rect>
                <rect id="Rectangle-15" fill="#FCD900" transform="translate(33.977762, 21.584789) rotate(-8.000000) translate(-33.977762, -21.584789) " x="29.6561408" y="3.73172658" width="8.64324324" height="35.7061242" rx="2"></rect>
                <rect id="Rectangle-15-Copy" fill="#DD4F46" x="18.2468468" y="1.97289973" width="6.72252252" height="37.4850949" rx="2"></rect>
                <g id="icon_books" transform="translate(1.920721, 0.000000)">
                    <rect id="Shape" x="0" y="0" width="38.4144144" height="39.4579946"></rect>
                    <path d="M16.3261261,0 C14.7376901,0 13.445045,1.32776152 13.445045,2.95934959 L13.445045,4.11546883 C13.1454126,4.0059729 12.8217712,3.94579946 12.4846847,3.94579946 L2.88108108,3.94579946 C1.29264505,3.94579946 0,5.27356098 0,6.90514905 L0,36.498645 C0,38.1302331 1.29264505,39.4579946 2.88108108,39.4579946 L12.4846847,39.4579946 C13.2222414,39.4579946 13.8954541,39.1719241 14.4054054,38.702374 C14.9153568,39.1719241 15.5885694,39.4579946 16.3261261,39.4579946 L20.1675676,39.4579946 C21.7560036,39.4579946 23.0486486,38.1302331 23.0486486,36.498645 L23.0486486,2.95934959 C23.0486486,1.32776152 21.7560036,0 20.1675676,0 L16.3261261,0 Z M12.4846847,37.4850949 L2.88108108,37.4850949 C2.35192252,37.4850949 1.92072072,37.0421789 1.92072072,36.498645 L1.92072072,6.90514905 C1.92072072,6.36161518 2.35192252,5.91869919 2.88108108,5.91869919 L12.4846847,5.91869919 C13.0138432,5.91869919 13.445045,6.36161518 13.445045,6.90514905 L13.445045,36.498645 C13.445045,37.0421789 13.0138432,37.4850949 12.4846847,37.4850949 L12.4846847,37.4850949 Z M21.1279279,36.498645 C21.1279279,37.0421789 20.6967261,37.4850949 20.1675676,37.4850949 L16.3261261,37.4850949 C15.7969676,37.4850949 15.3657658,37.0421789 15.3657658,36.498645 L15.3657658,2.95934959 C15.3657658,2.41581572 15.7969676,1.97289973 16.3261261,1.97289973 L20.1675676,1.97289973 C20.6967261,1.97289973 21.1279279,2.41581572 21.1279279,2.95934959 L21.1279279,36.498645 L21.1279279,36.498645 Z" id="Fill-1" fill="#000000"></path>
                    <path d="M10.563964,11.8373984 L5.07166306,11.8373984 C4.54058378,11.8373984 4.1113027,11.3954688 4.1113027,10.8509485 C4.1113027,10.3064282 4.54058378,9.86449864 5.07166306,9.86449864 L10.563964,9.86449864 C11.0940829,9.86449864 11.5243243,10.3064282 11.5243243,10.8509485 C11.5243243,11.3954688 11.0940829,11.8373984 10.563964,11.8373984" id="Fill-2" fill="#000000"></path>
                    <path d="M35.745573,38.7142114 L30.026627,39.4353062 C28.4497153,39.6345691 27.0091748,38.4784499 26.8161423,36.8586992 L23.0707369,5.52806504 C22.8767441,3.90831436 24.0022865,2.42863957 25.5791982,2.23036314 L31.2981441,1.50926829 C32.8750559,1.31000542 34.3155964,2.46612466 34.5086288,4.08587534 L38.2540342,35.4165095 C38.448027,37.0362602 37.3224847,38.515935 35.745573,38.7142114 L35.745573,38.7142114 Z M25.8125658,4.18846612 C25.2872486,4.25455827 24.9117477,4.7477832 24.9760919,5.28737127 L28.7214973,36.6180054 C28.7858414,37.1575935 29.2660216,37.5432954 29.7922991,37.4772033 L35.5102847,36.7561084 C36.0356018,36.6900163 36.4111027,36.1967913 36.3467586,35.6581897 L32.6013532,4.32558266 C32.537009,3.78599458 32.0568288,3.40029268 31.5315117,3.46638482 L25.8125658,4.18747967 L25.8125658,4.18846612 L25.8125658,4.18846612 Z" id="Fill-3" fill="#000000"></path>
                    <path d="M30.3281802,9.58237398 L28.4218649,9.82306775 C27.8955874,9.88915989 27.4163676,9.50444444 27.3520234,8.96386992 C27.2876793,8.42329539 27.6612595,7.93105691 28.1884973,7.86496477 L30.0948126,7.624271 C30.6210901,7.55817886 31.1003099,7.94190786 31.1646541,8.48346883 C31.2289982,9.02502981 30.855418,9.51726829 30.3281802,9.58237398" id="Fill-4" fill="#000000"></path>
                </g>
            </g>
        </g>
    </g>
</svg>
