
<svg width="44px" height="51px" viewBox="0 0 44 51" version="1.1" xmlns="http://www.w3.org/2000/svg" xmlns:xlink="http://www.w3.org/1999/xlink">
    <!-- Generator: Sketch 44.1 (41455) - http://www.bohemiancoding.com/sketch -->
    <desc>Created with Sketch.</desc>
    <defs></defs>
    <g id="Before-MVP-+-UI" stroke="none" stroke-width="1" fill="none" fill-rule="evenodd">
        <g id="Landing-page" transform="translate(-24.000000, -512.000000)">
            <g id="Group-10" transform="translate(25.000000, 512.000000)">
                <g id="Page-1">
                    <path d="M28.4488,3.92438462 C28.4488,6.09188462 26.6712462,7.84876923 24.4782462,7.84876923 C22.2859077,7.84876923 20.5076923,6.09188462 20.5076923,3.92438462 C20.5076923,1.75753846 22.2859077,0 24.4782462,0 C26.6712462,0 28.4488,1.75753846 28.4488,3.92438462 Z" id="Stroke-7" fill="#FCD900"></path>
                    <path d="M28.771521,19.2625942 C28.771521,19.2625942 32.9239979,15.5683635 37.7697671,17.6207865 C37.7697671,17.6207865 34.3085979,22.4089019 35.4160133,23.9140558 C35.4160133,23.9140558 39.8456748,28.8394788 39.8456748,29.6607096 L42.4759517,29.9346712 L42.6148748,36.3652481 L39.2919671,37.0491712 C39.2919671,37.0491712 35.3134748,42.9128635 33.846844,43.8190942 C33.846844,43.8190942 34.7637364,45.2686712 35.8638748,45.4497865 C36.9640133,45.6315558 34.0300902,51.4305173 31.6465671,50.8865173 C29.263044,50.3431712 25.780044,46.3560173 25.780044,46.3560173 C25.780044,46.3560173 16.2452902,47.2622481 14.9619056,45.8126712 C14.9619056,45.8126712 10.9285056,51.4305173 7.81133635,49.9802865 C4.69416712,48.5307096 4.69416712,46.5371327 6.34536712,44.1819788 C7.99524404,41.8255173 6.52795174,41.4632865 6.52795174,41.4632865 C6.52795174,41.4632865 0.111028659,36.5705558 3.77793635,28.5969019 C7.44484404,20.6239019 16.612444,19.5365558 16.612444,19.5365558 C16.612444,19.5365558 24.429844,18.4446327 28.771521,19.2625942 Z" id="Stroke-1" fill="#A1F7DE"></path>
                    <path d="M26.4560477,17.4612885 C26.4560477,17.4612885 30.6085246,13.7670577 35.4542938,15.8194808 C35.4542938,15.8194808 31.9931246,20.6075962 33.10054,22.11275 C33.10054,22.11275 37.5302015,27.0381731 37.5302015,27.8594038 L40.1604785,28.1333654 L40.2994015,34.5639423 L36.9764938,35.2478654 C36.9764938,35.2478654 32.9980015,41.1115577 31.5313708,42.0177885 C31.5313708,42.0177885 32.4482631,43.4673654 33.5484015,43.6484808 C34.64854,43.83025 31.7146169,49.6292115 29.3310938,49.0852115 C26.9475708,48.5418654 23.4645708,44.5547115 23.4645708,44.5547115 C23.4645708,44.5547115 13.9298169,45.4609423 12.6464323,44.0113654 C12.6464323,44.0113654 8.61303231,49.6292115 5.49586308,48.1789808 C2.37869385,46.7294038 2.37869385,44.7358269 4.02989385,42.3806731 C5.67977077,40.0242115 4.21247846,39.6619808 4.21247846,39.6619808 C4.21247846,39.6619808 -2.20444462,34.76925 1.46246308,26.7955962 C5.12937077,18.8225962 14.2969708,17.73525 14.2969708,17.73525 C14.2969708,17.73525 22.1143708,16.6433269 26.4560477,17.4612885 Z" id="Stroke-1" stroke="#221F20" stroke-width="1.95" stroke-linecap="round" stroke-linejoin="round"></path>
                    <path d="M12.1289769,22.7817654 C12.1289769,22.7817654 20.4107769,20.0977269 25.9776231,23.1845346" id="Stroke-3" stroke="#221F20" stroke-width="1.95" stroke-linecap="round" stroke-linejoin="round"></path>
                    <path d="M27.0645969,5.47524231 C27.0645969,7.64274231 25.2870431,9.39962692 23.0940431,9.39962692 C20.9017046,9.39962692 19.1234892,7.64274231 19.1234892,5.47524231 C19.1234892,3.30839615 20.9017046,1.55085769 23.0940431,1.55085769 C25.2870431,1.55085769 27.0645969,3.30839615 27.0645969,5.47524231" id="Fill-5"></path>
                    <path d="M27.0645969,5.47524231 C27.0645969,7.64274231 25.2870431,9.39962692 23.0940431,9.39962692 C20.9017046,9.39962692 19.1234892,7.64274231 19.1234892,5.47524231 C19.1234892,3.30839615 20.9017046,1.55085769 23.0940431,1.55085769 C25.2870431,1.55085769 27.0645969,3.30839615 27.0645969,5.47524231 Z" id="Stroke-7" stroke="#221F20" stroke-width="1.7836"></path>
                    <path d="M18.3389708,14.3615346 C15.9422169,14.3615346 13.9992785,12.4411885 13.9992785,10.07165 C13.9992785,7.70211154 15.9422169,5.78176538 18.3389708,5.78176538 C20.7363862,5.78176538 22.6799862,7.70211154 22.6799862,10.07165 C22.6799862,12.4411885 20.7363862,14.3615346 18.3389708,14.3615346 Z" id="Fill-9" fill="#DD4F46"></path>
                    <path d="M22.6799862,10.07165 C22.6799862,12.4411885 20.7363862,14.3615346 18.3389708,14.3615346 C15.9422169,14.3615346 13.9992785,12.4411885 13.9992785,10.07165 C13.9992785,7.70211154 15.9422169,5.78176538 18.3389708,5.78176538 C20.7363862,5.78176538 22.6799862,7.70211154 22.6799862,10.07165 Z" id="Stroke-11" stroke="#221F20" stroke-width="1.95"></path>
                </g>
                <ellipse id="Oval-6" stroke="#231F20" stroke-width="1.95" cx="30.7615385" cy="28.4423077" rx="1.65384615" ry="1.63461538"></ellipse>
            </g>
        </g>
    </g>
</svg>
